<?xml version="1.0" encoding="utf-8"?>
<!-- Generator: Adobe Illustrator 17.0.0, SVG Export Plug-In . SVG Version: 6.00 Build 0)  -->
<svg version="1.2" baseProfile="tiny" id="svg15637"
	 xmlns="http://www.w3.org/2000/svg" xmlns:xlink="http://www.w3.org/1999/xlink" x="0px" y="0px" width="612px" height="792px"
	 viewBox="0 0 612 792" xml:space="preserve">
<title>Bitcoin</title>
<g id="layer1">
	<g id="g8164">
		<path fill="#FFFFFF" d="M66.586,373.496l-3.624,14.666c4.046,0.927,16.857,5.226,18.964-3.034
			C84.033,376.867,70.716,374.507,66.586,373.496z"/>
		<path fill="#FFFFFF" d="M61.107,395.241l-4.046,16.857c4.973,1.264,20.313,6.153,22.589-2.95
			C81.926,400.046,66.08,396.759,61.107,395.241z"/>
		<path fill="#FFFFFF" d="M67.007,327.813C30.047,327.766,0.047,357.691,0,394.651s29.878,66.961,66.839,67.007
			c36.96,0.047,66.961-29.878,67.007-66.839l0,0C133.893,357.859,103.968,327.859,67.007,327.813
			C67.007,327.813,67.007,327.813,67.007,327.813z M96.507,385.211c-0.313,5.301-4.153,9.728-9.356,10.789
			c6.641,2.7,9.835,10.272,7.135,16.913c-0.12,0.295-0.251,0.586-0.392,0.871c-3.961,11.294-13.401,12.306-25.791,9.861
			l-3.034,12.221l-7.417-1.854l2.866-11.969l-5.816-1.517l-3.034,12.053l-7.249-1.854l3.034-12.221l-5.31-1.264l-9.693-2.36
			l3.624-8.429l5.479,1.264c1.366,0.335,2.76-0.435,3.203-1.77l4.804-19.133h1.011H49.56l3.624-13.823
			c0.244-2.127-1.283-4.05-3.41-4.294c-0.015-0.002-0.03-0.003-0.046-0.005l-5.31-1.349l1.939-7.839l10.114,2.529l0,0l4.72,1.264
			l2.95-12.053l7.417,1.854l-2.95,11.716l5.9,1.349l2.95-11.716l7.333,1.854l-3.034,12.053c9.187,3.203,16.014,7.839,14.666,16.857
			l0,0H96.507z"/>
		<g id="g8176">
			<path id="path8178" fill="#FFFFFF" d="M189.98,375.518c4.542-0.044,9.036,0.936,13.149,2.866c3.641,1.73,6.841,4.267,9.356,7.417
				c2.507,3.259,4.34,6.983,5.394,10.957c1.208,4.392,1.804,8.93,1.77,13.486c0.188,14.314-5.439,28.091-15.593,38.182
				c-4.804,4.921-10.533,8.845-16.857,11.547c-6.586,2.891-13.71,4.356-20.903,4.299h-4.383c-2.82-0.066-5.634-0.291-8.429-0.674
				c-3.294-0.528-6.558-1.231-9.777-2.107c-3.443-0.862-6.779-2.106-9.946-3.709l27.814-116.82l25.286-3.793l-10.283,41.216
				c2.091-0.951,4.263-1.712,6.49-2.276c2.261-0.563,4.582-0.846,6.911-0.843l0,0V375.518z M168.572,444.296
				c4.033,0.167,8.032-0.797,11.547-2.781c3.269-1.824,6.135-4.29,8.429-7.249c2.312-3.15,4.105-6.65,5.31-10.367
				c1.483-3.765,2.31-7.756,2.444-11.8c0.127-3.909-0.713-7.788-2.444-11.294c-2.096-3.092-5.725-4.777-9.44-4.383
				c-1.99,0.08-3.967,0.363-5.9,0.843c-2.415,0.554-4.648,1.715-6.49,3.371l-10.957,43.07h7.501v0.674V444.296z"/>
			<path id="path8180" fill="#FFFFFF" d="M245.609,461.406H221.84l20.06-84.286h23.853L245.609,461.406z M257.156,366.668
				c-3.259,0.013-6.43-1.054-9.019-3.034c-2.65-2.245-4.035-5.645-3.709-9.103c-0.015-2.18,0.445-4.337,1.349-6.321
				c0.969-1.789,2.254-3.388,3.793-4.72c1.511-1.468,3.283-2.64,5.226-3.456c1.999-0.848,4.15-1.278,6.321-1.264
				c3.105,0.054,6.113,1.086,8.597,2.95c2.776,2.174,4.292,5.585,4.046,9.103c0.01,2.306-0.509,4.584-1.517,6.659
				c-0.859,1.889-2.059,3.604-3.54,5.057c-1.527,1.448-3.296,2.617-5.226,3.456c-1.999,0.848-4.15,1.278-6.321,1.264l0,0
				L257.156,366.668L257.156,366.668z"/>
			<path id="path8182" fill="#FFFFFF" d="M286.572,356.301l25.286-3.793l-6.153,25.286h26.634l-5.057,19.217h-26.55l-7.08,29.753
				c-0.632,2.257-1.028,4.573-1.18,6.911c-0.138,1.894,0.15,3.795,0.843,5.563c0.676,1.566,1.906,2.827,3.456,3.54
				c2.259,0.968,4.711,1.401,7.164,1.264c2.658,0.062,5.314-0.164,7.923-0.674c2.412-0.585,4.779-1.346,7.08-2.276l1.349,18.374
				c-3.39,1.223-6.853,2.236-10.367,3.034c-4.351,0.905-8.789,1.329-13.233,1.264c-5.807,0.234-11.587-0.921-16.857-3.371
				c-3.737-1.982-6.703-5.157-8.429-9.019c-1.779-4.114-2.559-8.591-2.276-13.064c0.274-5.257,1.036-10.477,2.276-15.593
				L286.572,356.301L286.572,356.301z"/>
			<path id="path8184" fill="#FFFFFF" d="M331.075,428.029c-0.051-7.011,1.147-13.975,3.54-20.566
				c2.236-6.227,5.673-11.954,10.114-16.857c4.471-4.906,9.928-8.813,16.014-11.463c6.627-2.84,13.779-4.247,20.987-4.13
				c4.336-0.055,8.664,0.398,12.896,1.349c3.571,0.811,7.046,1.998,10.367,3.54l-8.429,18.711c-2.179-0.871-4.402-1.631-6.659-2.276
				c-2.744-0.754-5.584-1.095-8.429-1.011c-7.313-0.396-14.381,2.7-19.049,8.344c-4.904,6.28-7.36,14.128-6.911,22.083
				c-0.126,4.517,1.075,8.971,3.456,12.811c3.243,3.753,8.14,5.648,13.064,5.057c3.031,0.025,6.056-0.286,9.019-0.927
				c2.654-0.577,5.249-1.396,7.754-2.444l1.77,19.049c-3.245,1.253-6.567,2.294-9.946,3.119c-4.285,0.973-8.671,1.425-13.064,1.349
				c-5.708,0.379-11.435-0.366-16.857-2.191c-4.381-1.727-8.325-4.404-11.547-7.839c-3.023-3.299-5.244-7.25-6.49-11.547
				c-1.391-4.447-2.102-9.079-2.107-13.739l0,0l0,0L331.075,428.029z"/>
			<path id="path8186" fill="#FFFFFF" d="M436.685,464.019c-4.899,0.044-9.761-0.843-14.329-2.613
				c-3.968-1.544-7.519-3.998-10.367-7.164c-2.872-3.365-4.998-7.3-6.237-11.547c-1.443-4.551-2.154-9.302-2.107-14.076
				c0.011-6.558,1.064-13.073,3.119-19.301c2.03-6.269,5.17-12.121,9.271-17.279c4.087-5.138,9.159-9.407,14.919-12.559
				c6.2-3.377,13.169-5.09,20.229-4.973c5.006-0.112,9.986,0.747,14.666,2.529c3.977,1.569,7.529,4.052,10.367,7.249
				c2.866,3.369,4.991,7.303,6.237,11.547c1.454,4.548,2.166,9.301,2.107,14.076c-0.061,6.472-1.113,12.896-3.119,19.049
				c-1.972,6.243-5.025,12.091-9.019,17.279c-4.172,5.297-9.431,9.637-15.424,12.727c-6.346,3.394-13.455,5.106-20.65,4.973l0,0
				L436.685,464.019z M448.232,394.82c-3.37-0.062-6.664,1.006-9.356,3.034c-2.699,2.131-4.96,4.764-6.659,7.754
				c-1.828,3.159-3.191,6.566-4.046,10.114c-0.873,3.445-1.326,6.982-1.349,10.536c-0.249,4.334,0.622,8.659,2.529,12.559
				c1.935,3.013,5.363,4.727,8.934,4.467c3.371,0.069,6.667-1,9.356-3.034c3.001-2.014,5.555-4.625,7.501-7.67
				c1.828-3.159,3.191-6.566,4.046-10.114c0.748-3.403,1.088-6.884,1.011-10.367c0.249-4.334-0.622-8.659-2.529-12.559
				c-2.007-3.156-5.639-4.89-9.356-4.467l0,0L448.232,394.82z"/>
			<path id="path8188" fill="#FFFFFF" d="M510.183,461.406H486.33l20.06-84.286h23.853L510.183,461.406z M521.73,366.668
				c-3.26,0.019-6.433-1.049-9.019-3.034c-2.776-2.174-4.292-5.585-4.046-9.103c-0.015-2.18,0.445-4.337,1.349-6.321
				c0.84-1.949,2.042-3.722,3.54-5.226c1.511-1.468,3.283-2.64,5.226-3.456c1.998-0.85,4.15-1.28,6.321-1.264
				c3.259-0.013,6.43,1.054,9.019,3.034c2.776,2.174,4.292,5.585,4.046,9.103c0.007,2.179-0.453,4.335-1.349,6.321
				c-0.859,1.889-2.059,3.604-3.54,5.057c-1.528,1.447-3.296,2.616-5.226,3.456c-1.999,0.848-4.15,1.278-6.321,1.264l0,0V366.668z"
				/>
			<path id="path8190" fill="#FFFFFF" d="M547.858,380.576l5.647-2.191c2.425-0.796,4.903-1.415,7.417-1.854
				c3.005-0.666,6.044-1.173,9.103-1.517c3.843-0.266,7.698-0.322,11.547-0.169c9.973-1.131,19.813,3.023,25.96,10.957
				c5.003,9.177,5.921,20.035,2.529,29.922l-10.957,46.189h-23.937l10.62-44.672c0.664-2.779,1.171-5.593,1.517-8.429
				c0.405-2.286,0.405-4.625,0-6.911c-0.475-2.015-1.675-3.786-3.371-4.973c-2.14-1.328-4.656-1.92-7.164-1.686
				c-3.17-0.004-6.332,0.306-9.44,0.927l-15.34,65.069h-23.937L547.858,380.576L547.858,380.576z"/>
		</g>
	</g>
</g>
</svg>
