<?xml version="1.0" encoding="utf-8"?>
<!-- Generator: Adobe Illustrator 17.0.0, SVG Export Plug-In . SVG Version: 6.00 Build 0)  -->
<svg version="1.2" baseProfile="tiny" id="logo" xmlns="http://www.w3.org/2000/svg" xmlns:xlink="http://www.w3.org/1999/xlink"
	 x="0px" y="0px" width="612px" height="792px" viewBox="0 0 612 792" xml:space="preserve">
<title>qiwi</title>
<path fill="#FFFFFF" d="M608.839,328.6h-13.875c-1.367-0.33-2.743,0.51-3.074,1.877c-0.095,0.393-0.095,0.803,0,1.196v96.775
	c-0.38,1.404,0.45,2.851,1.855,3.231c0.427,0.116,0.877,0.122,1.307,0.018h13.612c1.401,0.394,2.855-0.422,3.249-1.823
	c0.131-0.466,0.131-0.96,0-1.426v-96.599c0.272-1.403-0.624-2.766-2.02-3.074h-1.054V328.6z"/>
<path fill="#FFFFFF" d="M418.099,328.6H403.96c-2.634,0-2.898,1.054-2.986,3.074v96.775c-0.38,1.404,0.45,2.851,1.855,3.231
	c0.427,0.116,0.877,0.122,1.307,0.018h13.612c1.257,0.734,2.87,0.31,3.603-0.947c0.409-0.7,0.472-1.549,0.173-2.302v-96.599
	c0.621-1.208,0.146-2.69-1.061-3.311C419.716,328.154,418.825,328.177,418.099,328.6z"/>
<path fill="#FFFFFF" d="M373.663,457.428c-8.782-2.371-26.872-8.782-31.702-25.204c20.966-8.817,33.995-30.001,32.405-52.69
	c0-31.526-18.705-53.569-46.368-53.569c-25.467,0-46.807,18.442-46.807,54.622c0,23.711,10.977,48.124,39.869,52.69
	c11.943,28.189,50.319,32.58,53.217,32.58c2.385,0.437,4.673-1.143,5.11-3.529c0.047-0.255,0.071-0.515,0.072-0.774
	C379.459,458.921,377.615,458.306,373.663,457.428z M327.735,422.301c-8.238-0.129-15.734-4.789-19.495-12.119
	c-4.604-9.353-6.807-19.704-6.411-30.121c-0.51-10.286,1.702-20.524,6.411-29.682c4.138-6.937,11.511-11.302,19.583-11.592
	c7.747-0.022,14.941,4.008,18.969,10.626c4.947,9.059,7.373,19.279,7.025,29.594c0.572,10.27-1.389,20.523-5.708,29.858
	c-3.846,7.809-11.674,12.871-20.374,13.173V422.301z"/>
<path fill="#FFFFFF" d="M564.491,328.6h-9.923c-1.574-0.291-3.086,0.749-3.377,2.322c-0.035,0.19-0.051,0.383-0.048,0.576
	l-16.949,66.917l-20.813-66.566c-0.878-2.722-1.054-3.074-2.02-3.337h-5.533c-1.581,0-1.932,0.878-2.635,2.898l-20.198,67.093
	l-17.563-66.653c0-3.074-0.966-3.249-3.425-3.249h-13.7c-1.227-0.291-2.458,0.468-2.749,1.695c-0.039,0.164-0.06,0.332-0.061,0.501
	c0.012,0.781,0.16,1.554,0.439,2.283l27.399,95.984c0.235,1.828,1.907,3.12,3.735,2.885c0.132-0.017,0.263-0.042,0.392-0.075
	c2.195,0,6.147,0,6.499,0s1.756-0.527,2.635-2.635l19.583-62.263l20.725,62.087c0.703,2.195,1.229,2.635,2.635,2.722h7.201
	c2.02,0,2.459-0.527,3.161-2.898l27.048-95.721c0.066-0.877,0.066-1.758,0-2.635c0-1.932-1.405-1.932-2.898-1.932l0,0H564.491z"/>
<path fill="#FFFFFF" d="M203.122,441.797c-2.547-0.966-2.81,2.02-2.02,4.04c0.653,3.341,2.307,6.404,4.742,8.782
	c1.405,0.615,2.898-1.054,1.932-5.62C207.275,446.062,205.593,443.46,203.122,441.797z"/>
<path fill="#FFFFFF" d="M183.099,450.227h-1.054c-1.539-0.31-3.139-0.028-4.479,0.79c-3.063,2.592-3.492,7.157-0.966,10.275
	c1.057,1.549,2.557,2.743,4.303,3.425h1.054c1.557,0.222,3.139-0.189,4.391-1.142c3.079-2.535,3.549-7.075,1.054-10.187
	C186.331,451.914,184.827,450.809,183.099,450.227z"/>
<path fill="#FFFFFF" d="M254.144,522.413c-7.994-14.488-20.011-26.353-34.6-34.161c-4.814-2.71-9.908-4.889-15.192-6.499
	c-11.185-2.991-22.573-5.163-34.073-6.499c-9.543-1.878-18.545-5.869-26.345-11.68c-4.408-3.17-8.189-7.13-11.153-11.68
	c-1.443-1.712-2.493-3.721-3.074-5.884c-1.126,6.532-0.427,13.248,2.02,19.408c-33.26-1.05-63.968-18.088-82.461-45.753
	C22.92,374.88,31.702,320.784,67.532,296.722s89.925-7.025,118.993,36.181c17.459,24.394,23.126,55.304,15.456,84.305v0.615
	c-8.311-6.621-19.362-8.693-29.507-5.533c10.318-0.325,20.328,3.54,27.75,10.714c1.845,1.639,3.549,3.431,5.093,5.357l1.054,1.493
	c3.861,5.191,6.475,11.2,7.64,17.563c31.553-38.426,35.086-92.695,8.782-134.888c-35.215-53.305-109.157-67.005-165.536-30.385
	s-74.206,109.596-39.694,162.989c28.453,43.909,95.282,57.345,133.483,45.226c36.227-8.797,74.323,3.528,98.531,31.878
	c1.854,2.205,3.391,4.658,4.567,7.289c0.209,0.618,0.864,0.965,1.493,0.79l0,0C255.637,530.317,257.481,529,254.144,522.413z"/>
</svg>
