<?xml version="1.0" encoding="UTF-8"?>
<svg width="426px" height="140px" viewBox="0 0 426 140" version="1.1" xmlns="http://www.w3.org/2000/svg" xmlns:xlink="http://www.w3.org/1999/xlink">
    <title>tether_tron</title>
    <g id="Page-1" stroke="none" stroke-width="1" fill="none" fill-rule="evenodd">
        <g id="tether_tron" transform="translate(0.905000, 0.273000)" fill="#FFFFFF" fill-rule="nonzero">
            <g id="Group" transform="translate(0.000000, 29.010000)">
                <path d="M45.39,37.35 L45.39,37.34 C44.96,37.37 42.74,37.5 37.8,37.5 C33.85,37.5 31.08,37.39 30.1,37.34 L30.1,37.35 C14.91,36.68 3.58,34.04 3.58,30.87 C3.58,27.71 14.92,25.06 30.1,24.39 L30.1,34.72 C31.09,34.79 33.94,34.96 37.87,34.96 C42.59,34.96 44.95,34.76 45.39,34.72 L45.39,24.4 C60.55,25.08 71.85,27.72 71.85,30.88 C71.85,34.04 60.54,36.68 45.39,37.36 M45.39,23.33 L45.39,14.09 L66.54,14.09 L66.54,-1.27675648e-15 L8.96,-1.27675648e-15 L8.96,14.09 L30.11,14.09 L30.11,23.33 C12.92,24.12 -1.11022302e-15,27.52 -1.11022302e-15,31.6 C-1.11022302e-15,35.68 12.93,39.08 30.11,39.88 L30.11,69.5 L45.4,69.5 L45.4,39.88 C62.56,39.09 75.46,35.69 75.46,31.61 C75.46,27.54 62.56,24.13 45.4,23.34" id="Shape"></path>
            </g>
            <path d="M144.795,7.86 L144.795,22.8 L159.315,22.8 L159.315,34.01 L144.695,34.01 L144.695,56.74 C144.695,61.76 147.465,64.21 151.525,64.21 C153.555,64.21 155.905,63.57 157.825,62.61 L161.455,73.71 C157.725,75.2 154.625,75.84 150.675,75.95 C139.255,76.38 131.785,69.87 131.785,56.74 L131.785,34.01 L121.965,34.01 L121.965,22.8 L131.785,22.8 L131.785,9.25 L144.795,7.86 Z M395.125,22.1 L396.085,28.18 C400.145,21.67 405.585,20.71 410.925,20.71 C416.365,20.71 421.595,22.84 424.475,25.72 L418.605,37.03 C415.935,34.79 413.485,33.61 409.215,33.61 C402.385,33.61 396.085,37.24 396.085,46.95 L396.085,74.7 L383.065,74.7 L383.065,22.08 L395.125,22.1 Z M363.215,42.27 C362.365,35.44 357.025,32.02 349.555,32.02 C342.515,32.02 336.745,35.44 334.825,42.27 L363.215,42.27 Z M334.615,53.05 C335.465,59.56 341.125,64.26 350.305,64.26 C355.105,64.26 361.405,62.44 364.395,59.35 L372.715,67.57 C367.165,73.33 358.095,76.11 350.085,76.11 C331.945,76.11 321.155,64.9 321.155,48.04 C321.155,32.03 332.045,20.5 349.125,20.5 C366.735,20.5 377.735,31.39 375.705,53.05 L334.615,53.05 Z M277.195,0 L277.195,29.24 C281.895,23.16 287.655,21.34 293.635,21.34 C308.575,21.34 315.195,31.48 315.195,46.96 L315.195,74.71 L302.175,74.71 L302.175,47.07 C302.175,37.46 297.155,33.41 290.215,33.41 C282.525,33.41 277.195,39.92 277.195,47.82 L277.195,74.72 L264.175,74.72 L264.175,0.01 L277.195,0 Z M242.615,7.26 L242.615,22.2 L257.135,22.2 L257.135,33.41 L242.515,33.41 L242.515,56.14 C242.515,61.16 245.295,63.61 249.345,63.61 C251.375,63.61 253.725,62.97 255.645,62.01 L259.275,73.11 C255.545,74.6 252.445,75.24 248.495,75.35 C237.075,75.78 229.605,69.26 229.605,56.14 L229.605,33.41 L219.785,33.41 L219.785,22.2 L229.605,22.2 L229.605,8.65 L242.615,7.26 Z M206.645,42.27 C205.795,35.44 200.455,32.02 192.985,32.02 C185.945,32.02 180.175,35.44 178.255,42.27 L206.645,42.27 Z M178.045,53.05 C178.895,59.56 184.555,64.26 193.735,64.26 C198.535,64.26 204.835,62.44 207.825,59.35 L216.145,67.57 C210.595,73.33 201.525,76.11 193.515,76.11 C175.365,76.11 164.585,64.9 164.585,48.04 C164.585,32.03 175.475,20.5 192.545,20.5 C210.155,20.5 221.145,31.39 219.125,53.05 L178.045,53.05 Z" id="Shape"></path>
            <path d="M150.365508,138.727 L150.365508,112.074168 L160.055449,112.074168 L160.055449,106.339305 L133.820098,106.339305 L133.820098,112.074168 L143.553984,112.074168 L143.553984,138.727 L150.365508,138.727 Z M170.778105,138.727 L170.778105,126.026805 L177.76541,126.026805 C179.757598,126.026805 181.11624,126.371043 181.841338,127.05952 C182.566436,127.747996 182.943633,129.124949 182.97293,131.190379 L182.97293,131.190379 L183.016875,134.200633 C183.031523,135.152781 183.126738,136.082957 183.30252,136.99116 C183.39041,137.430613 183.536895,138.009227 183.741973,138.727 L183.741973,138.727 L191.190703,138.727 L191.190703,137.914012 C190.546172,137.518504 190.136016,136.90327 189.960234,136.068309 C189.843047,135.540965 189.784453,134.537547 189.784453,133.058055 L189.784453,133.058055 L189.784453,130.882762 C189.784453,128.612254 189.473174,126.924021 188.850615,125.818064 C188.228057,124.712107 187.169707,123.858836 185.675566,123.25825 C187.462676,122.643016 188.744414,121.59199 189.520781,120.105174 C190.297148,118.618357 190.685332,117.105906 190.685332,115.56782 C190.685332,114.293406 190.480254,113.158152 190.070098,112.162059 C189.659941,111.165965 189.103301,110.257762 188.400176,109.437449 C187.550566,108.441355 186.514189,107.686961 185.291045,107.174266 C184.0679,106.66157 182.321074,106.38325 180.050566,106.339305 L180.050566,106.339305 L164.164336,106.339305 L164.164336,138.727 L170.778105,138.727 Z M178.446562,120.665477 L170.778105,120.665477 L170.778105,111.964305 L178.644316,111.964305 C180.10916,111.964305 181.207793,112.154734 181.940215,112.535594 C183.243926,113.209422 183.895781,114.527781 183.895781,116.490672 C183.895781,118.307078 183.221953,119.522898 181.874297,120.138133 C181.112578,120.489695 179.97,120.665477 178.446562,120.665477 L178.446562,120.665477 Z M210.087187,139.627879 C213.851836,139.627879 216.938994,138.521922 219.348662,136.310008 C221.75833,134.098094 223.256133,131.227 223.84207,127.696727 L223.84207,127.696727 L217.14041,127.696727 C216.686309,129.366648 216.11502,130.61909 215.426543,131.454051 C214.181426,133.006785 212.372344,133.783152 209.999297,133.783152 C207.684844,133.783152 205.776885,132.878611 204.27542,131.069529 C202.773955,129.260447 202.023223,126.5395 202.023223,122.906688 C202.023223,119.273875 202.733672,116.465037 204.15457,114.480174 C205.575469,112.495311 207.516387,111.502879 209.977324,111.502879 C212.394316,111.502879 214.218047,112.206004 215.448516,113.612254 C216.136992,114.40327 216.700957,115.575145 217.14041,117.127879 L217.14041,117.127879 L223.907988,117.127879 C223.805449,115.106395 223.058379,113.092234 221.666777,111.085398 C219.147246,107.51118 215.162871,105.72407 209.713652,105.72407 C205.641387,105.72407 202.286895,107.057078 199.650176,109.723094 C196.617949,112.784617 195.101836,117.142527 195.101836,122.796824 C195.101836,128.026316 196.434844,132.142527 199.100859,135.145457 C201.766875,138.133738 205.428984,139.627879 210.087187,139.627879 Z M239.22293,129.146922 L239.22293,123.214305 L226.610625,123.214305 L226.610625,129.146922 L239.22293,129.146922 Z M263.788359,138.727 L263.788359,133.211863 L249.879668,133.211863 C250.275176,132.552684 250.762236,131.97407 251.34085,131.476023 C251.738646,131.133616 252.370117,130.645812 253.235262,130.01261 L253.730333,129.652808 C253.989456,129.465697 254.265959,129.267771 254.559844,129.059031 L254.559844,129.059031 L257.064727,127.279246 C259.174102,125.785105 260.690215,124.430125 261.613066,123.214305 C263.019316,121.38325 263.722441,119.288523 263.722441,116.930125 C263.722441,113.853953 262.726348,111.382029 260.73416,109.514354 C258.741973,107.646678 256.061309,106.71284 252.692168,106.71284 C248.429473,106.71284 245.463164,108.302195 243.793242,111.480906 C242.914336,113.150828 242.423613,115.34077 242.321074,118.05073 L242.321074,118.05073 L248.4075,118.05073 C248.480742,116.263621 248.715117,114.95991 249.110625,114.139598 C249.799102,112.718699 251.095488,112.00825 252.999785,112.00825 C254.391387,112.00825 255.460723,112.455027 256.207793,113.348582 C256.954863,114.242137 257.328398,115.362742 257.328398,116.710398 C257.328398,118.365672 256.676543,119.889109 255.372832,121.280711 C254.523223,122.174266 252.655547,123.653758 249.769805,125.719188 C246.444609,128.092234 244.335234,130.34077 243.44168,132.464793 C242.518828,134.354441 242.028105,136.441844 241.969512,138.727 L241.969512,138.727 L263.788359,138.727 Z M277.982695,139.518016 C282.040313,139.518016 284.885771,138.097117 286.519072,135.25532 C288.152373,132.413523 288.969023,128.36323 288.969023,123.104441 C288.969023,117.845652 288.152373,113.788035 286.519072,110.93159 C284.885771,108.075145 282.040313,106.646922 277.982695,106.646922 C273.925078,106.646922 271.079619,108.075145 269.446318,110.93159 C267.813018,113.788035 266.996367,117.845652 266.996367,123.104441 C266.996367,128.36323 267.813018,132.413523 269.446318,135.25532 C271.079619,138.097117 273.925078,139.518016 277.982695,139.518016 Z M277.982695,134.420359 C276.122344,134.420359 274.891875,133.4499 274.291289,131.508982 C273.690703,129.568064 273.39041,126.766551 273.39041,123.104441 C273.39041,119.266551 273.690703,116.424754 274.291289,114.579051 C274.891875,112.733348 276.122344,111.810496 277.982695,111.810496 C279.843047,111.810496 281.062529,112.733348 281.641143,114.579051 C282.219756,116.424754 282.509063,119.266551 282.509063,123.104441 C282.509063,126.766551 282.219756,129.568064 281.641143,131.508982 C281.062529,133.4499 279.843047,134.420359 277.982695,134.420359 Z" id="TRC-20"></path>
        </g>
    </g>
</svg>