<?xml version="1.0" encoding="UTF-8"?>
<svg width="1307px" height="382px" viewBox="0 0 1307 382" version="1.1" xmlns="http://www.w3.org/2000/svg" xmlns:xlink="http://www.w3.org/1999/xlink">
    <title>Group 2</title>
    <g id="Page-1" stroke="none" stroke-width="1" fill="none" fill-rule="evenodd">
        <g id="Group-2" transform="translate(0.950000, 0.073406)" fill="#FFFFFF" fill-rule="nonzero">
            <g id="visa" transform="translate(-0.000000, 0.000000)">
                <g id="Group" transform="translate(255.682842, 190.963296) scale(-1, 1) rotate(-180.000000) translate(-255.682842, -190.963296) translate(0.000000, 0.000000)">
                    <path d="M122.25,380.7 C120.45,380 117.45,378.2 115.55,376.7 C108.45,371 107.65,368.8 100.55,334.5 C96.95,316.9 93.65,301.7 93.45,300.8 C92.95,299.1 90.35,299 56.05,299 L19.25,299 L13.95,296.2 C7.95,293.1 2.65,286.9 1.05,281.2 C-0.35,276.1 -0.35,22.9 1.05,17.8 C2.75,11.9 7.95,5.8 13.95,2.8 L19.45,3.04040088e-23 L206.95,3.04040088e-23 C386.35,3.04040088e-23 394.75,0.1 398.55,1.9 C404.45,4.5 408.65,8.5 411.05,13.5 C412.25,16 413.75,18 414.25,18 C414.85,18 419.95,17 425.65,15.8 C434.75,13.9 436.65,13.8 441.55,14.9 C449.05,16.6 454.85,21.1 458.25,28 C460.35,32.3 466.35,59.7 486.65,157.5 C514.05,290.1 513.45,286.4 509.15,294.8 C506.75,299.5 500.05,305.5 495.65,306.9 C493.05,307.8 417.95,323.4 216.55,365.1 C200.65,368.4 182.35,372.2 176.05,373.5 C133.15,382.6 129.05,383.1 122.25,380.7 Z M310.75,333 C409.05,312.6 490.75,295.5 492.35,294.9 C495.45,293.6 498.45,289.8 499.35,286 C499.85,283.9 494.05,251.6 492.95,250.5 C492.65,250.3 477.25,253.3 458.55,257.1 C439.85,260.9 422.15,264.5 419.35,265.1 L414.05,266.1 L414.05,271.4 C414.05,283.1 409.05,291.8 399.85,296.4 L394.65,299 L324.25,299 L253.85,299 L212.25,307.5 C136.05,323.2 112.65,328.1 112.25,328.5 C111.65,329.1 118.05,359 119.65,362.7 C121.05,366.2 126.25,370 129.75,370 C130.95,370 212.35,353.3 310.75,333 Z M148.65,308 C170.05,303.6 188.05,299.8 188.55,299.6 C189.15,299.3 170.75,299.1 147.65,299.1 L105.85,299 L106.55,302.8 C107.75,309.5 109.25,316 109.45,316 C109.65,316 127.25,312.4 148.65,308 Z M396.95,283.6 C398.65,281.9 400.55,279 401.05,277.1 C402.35,272.2 402.35,26.8 401.05,21.9 C400.55,20 398.65,17.1 396.95,15.4 L393.95,12.5 L208.45,12.2 C-0.15,12 17.65,11.3 13.95,19.4 C12.15,23.3 12.05,29 12.05,149.5 C12.05,269.8 12.15,275.7 13.95,279.6 C17.65,287.7 -0.25,287 208.25,286.7 L393.95,286.5 L396.95,283.6 Z M482.95,239.4 L490.25,237.8 L489.65,234.2 C489.35,232.1 487.65,223.7 485.95,215.5 L482.85,200.4 L448.45,207 L414.05,213.5 L414.05,233.6 L414.05,253.6 L444.85,247.3 C461.75,243.9 478.85,240.3 482.95,239.4 Z M448.55,194.4 C465.05,191.3 478.95,188.4 479.35,188 C480.35,187.1 449.45,37.7 447.35,33.2 C445.45,29.3 441.05,26.7 436.15,26.8 C434.15,26.9 428.55,27.8 423.55,28.8 L414.55,30.7 L414.25,116 L414.05,201.2 L416.25,200.7 C417.55,200.4 432.05,197.6 448.55,194.4 Z" id="Shape"></path>
                    <polygon id="Path" points="267.05 255 267.05 246 273.05 246 279.05 246 279.05 255 279.05 264 273.05 264 267.05 264"></polygon>
                    <polygon id="Path" points="292.05 255 292.05 246 298.05 246 304.05 246 304.05 255 304.05 264 298.05 264 292.05 264"></polygon>
                    <polygon id="Path" points="322.05 255 322.05 246 328.05 246 334.05 246 334.05 255 334.05 264 328.05 264 322.05 264"></polygon>
                    <polygon id="Path" points="347.05 255 347.05 246 353.05 246 359.05 246 359.05 255 359.05 264 353.05 264 347.05 264"></polygon>
                    <path d="M59.35,247.5 C53.05,244.8 52.05,241.5 52.05,223.9 C52.05,209.6 52.25,208.1 54.15,205.6 C58.15,200.5 60.45,200 79.85,200 C96.85,200 97.95,200.1 101.15,202.3 C106.45,205.9 107.05,207.9 107.05,224.5 C107.05,247.9 105.75,249 79.35,249 C67.25,248.9 61.65,248.5 59.35,247.5 Z M94.85,224.3 L95.15,212 L79.55,212 L64.05,212 L64.05,223.8 C64.05,230.3 64.35,236 64.75,236.4 C65.15,236.7 71.95,236.9 79.95,236.8 L94.55,236.5 L94.85,224.3 Z" id="Shape"></path>
                    <polygon id="Path" points="35.25 81.8 35.55 75.5 44.55 75.5 53.55 75.5 53.55 81.5 53.55 87.5 44.25 87.8 34.95 88.1"></polygon>
                    <polygon id="Path" points="65.25 81.8 65.55 75.5 74.35 75.2 83.05 74.9 83.05 81.5 83.05 88 74.05 88 64.95 88"></polygon>
                    <polygon id="Path" points="95.25 81.8 95.55 75.5 104.55 75.5 113.55 75.5 113.85 81.8 114.15 88 104.55 88 94.95 88"></polygon>
                    <polygon id="Path" points="125.25 81.8 125.55 75.5 134.55 75.5 143.55 75.5 143.55 81.5 143.55 87.5 134.25 87.8 124.95 88.1"></polygon>
                    <path d="M155.45,86.6 C155.15,85.9 155.05,83.1 155.25,80.4 L155.55,75.5 L164.55,75.5 L173.55,75.5 L173.85,81.8 L174.15,88 L165.05,88 C158.25,88 155.85,87.7 155.45,86.6 Z" id="Path"></path>
                    <polygon id="Path" points="35.05 41 35.05 35 104.55 35 174.05 35 174.05 41 174.05 47 104.55 47 35.05 47"></polygon>
                </g>
            </g>
            <g id="CARDS" transform="translate(610.467969, 116.782063)">
                <path d="M107.8125,137.402344 C97.0703125,147.233073 83.3333333,152.148438 66.6015625,152.148438 C45.8984375,152.148438 29.6223958,145.507812 17.7734375,132.226562 C5.92447917,118.880208 0,100.585938 0,77.34375 C0,52.2135417 6.73828125,32.8450521 20.2148438,19.2382812 C31.9335938,7.38932292 46.8424479,1.46484375 64.9414062,1.46484375 C89.1601562,1.46484375 106.86849,9.40755208 118.066406,25.2929688 C124.251302,34.2122396 127.571615,43.1640625 128.027344,52.1484375 L97.9492188,52.1484375 C95.9960938,45.2473958 93.4895833,40.0390625 90.4296875,36.5234375 C84.9609375,30.2734375 76.8554688,27.1484375 66.1132812,27.1484375 C55.1757812,27.1484375 46.5494792,31.5592448 40.234375,40.3808594 C33.9192708,49.202474 30.7617188,61.6861979 30.7617188,77.8320312 C30.7617188,93.9778646 34.0983073,106.070964 40.7714844,114.111328 C47.4446615,122.151693 55.9244792,126.171875 66.2109375,126.171875 C76.7578125,126.171875 84.7981771,122.721354 90.3320312,115.820312 C93.3919271,112.109375 95.9309896,106.542969 97.9492188,99.1210938 L127.734375,99.1210938 C125.130208,114.811198 118.489583,127.571615 107.8125,137.402344 Z" id="Path"></path>
                <path d="M234.960938,118.554688 L181.933594,118.554688 L171.972656,148.144531 L140.527344,148.144531 L191.894531,4.19921875 L225.878906,4.19921875 L276.855469,148.144531 L244.238281,148.144531 L234.960938,118.554688 Z M226.5625,93.75 L208.59375,37.109375 L190.039062,93.75 L226.5625,93.75 Z" id="Shape"></path>
                <path d="M356.25,91.6992188 L325.195312,91.6992188 L325.195312,148.144531 L295.800781,148.144531 L295.800781,4.19921875 L366.40625,4.19921875 C376.497396,4.39453125 384.261068,5.63151042 389.697266,7.91015625 C395.133464,10.1888021 399.739583,13.5416667 403.515625,17.96875 C406.640625,21.6145833 409.114583,25.6510417 410.9375,30.078125 C412.760417,34.5052083 413.671875,39.5507812 413.671875,45.2148438 C413.671875,52.0507812 411.946615,58.7727865 408.496094,65.3808594 C405.045573,71.9889323 399.348958,76.6601562 391.40625,79.3945312 C398.046875,82.0638021 402.750651,85.8561198 405.517578,90.7714844 C408.284505,95.686849 409.667969,103.190104 409.667969,113.28125 L409.667969,122.949219 C409.667969,129.52474 409.928385,133.984375 410.449219,136.328125 C411.230469,140.039062 413.053385,142.773438 415.917969,144.53125 L415.917969,148.144531 L382.8125,148.144531 C381.901042,144.954427 381.25,142.382812 380.859375,140.429688 C380.078125,136.393229 379.654948,132.259115 379.589844,128.027344 L379.394531,114.648438 C379.264323,105.46875 377.587891,99.3489583 374.365234,96.2890625 C371.142578,93.2291667 365.104167,91.6992188 356.25,91.6992188 Z M374.511719,65.5273438 C380.501302,62.7929688 383.496094,57.3893229 383.496094,49.3164062 C383.496094,40.5924479 380.598958,34.7330729 374.804688,31.7382812 C371.549479,30.0455729 366.666667,29.1992188 360.15625,29.1992188 L325.195312,29.1992188 L325.195312,67.8710938 L359.277344,67.8710938 C366.048177,67.8710938 371.126302,67.0898438 374.511719,65.5273438 Z" id="Shape"></path>
                <path d="M501.5625,148.144531 L439.550781,148.144531 L439.550781,4.19921875 L501.5625,4.19921875 C510.481771,4.32942708 517.903646,5.37109375 523.828125,7.32421875 C533.919271,10.6445312 542.089844,16.7317708 548.339844,25.5859375 C553.352865,32.7473958 556.770833,40.4947917 558.59375,48.828125 C560.416667,57.1614583 561.328125,65.1041667 561.328125,72.65625 C561.328125,91.796875 557.486979,108.007812 549.804688,121.289062 C539.388021,139.192708 523.307292,148.144531 501.5625,148.144531 Z M523.925781,40.9179688 C519.303385,33.1054688 510.15625,29.1992188 496.484375,29.1992188 L468.75,29.1992188 L468.75,123.144531 L496.484375,123.144531 C510.677083,123.144531 520.572917,116.145833 526.171875,102.148438 C529.231771,94.4661458 530.761719,85.3190104 530.761719,74.7070312 C530.761719,60.0585938 528.483073,48.7955729 523.925781,40.9179688 Z" id="Shape"></path>
                <path d="M636.230469,127.34375 C643.326823,127.34375 649.088542,126.5625 653.515625,125 C661.914062,122.005208 666.113281,116.438802 666.113281,108.300781 C666.113281,103.548177 664.029948,99.8697917 659.863281,97.265625 C655.696615,94.7265625 649.153646,92.4804688 640.234375,90.5273437 L625,87.109375 C610.026042,83.7239583 599.674479,80.0455729 593.945312,76.0742188 C584.244792,69.4335938 579.394531,59.0494792 579.394531,44.921875 C579.394531,32.03125 584.082031,21.3216146 593.457031,12.7929688 C602.832031,4.26432292 616.601562,0 634.765625,0 C649.934896,0 662.874349,4.02018229 673.583984,12.0605469 C684.29362,20.1009115 689.908854,31.7708333 690.429688,47.0703125 L661.523438,47.0703125 C661.002604,38.4114583 657.226562,32.2591146 650.195312,28.6132812 C645.507812,26.2044271 639.68099,25 632.714844,25 C624.967448,25 618.782552,26.5625 614.160156,29.6875 C609.53776,32.8125 607.226562,37.1744792 607.226562,42.7734375 C607.226562,47.9166667 609.505208,51.7578125 614.0625,54.296875 C616.992188,55.9895833 623.242188,57.9752604 632.8125,60.2539062 L657.617188,66.2109375 C668.489583,68.8151042 676.692708,72.2981771 682.226562,76.6601562 C690.820312,83.4309896 695.117188,93.2291667 695.117188,106.054688 C695.117188,119.205729 690.087891,130.126953 680.029297,138.818359 C669.970703,147.509766 655.761719,151.855469 637.402344,151.855469 C618.652344,151.855469 603.90625,147.57487 593.164062,139.013672 C582.421875,130.452474 577.050781,118.684896 577.050781,103.710938 L605.761719,103.710938 C606.673177,110.286458 608.463542,115.201823 611.132812,118.457031 C616.015625,124.38151 624.38151,127.34375 636.230469,127.34375 Z" id="Path"></path>
            </g>
        </g>
    </g>
</svg>